# xmcd
# 
# Track frame offsets:
#     150
#     15693
#     35730
#     50327
#     65762
#     84244
#     97473
#     110227
#     120046
#     136493
#     149266
#     174718
# 
# Disc length: 2598
# 
# Revision: 0
# Processed by: cddbd v1.5.2PL0 Copyright (c) Steve Scherf et al.
# Submitted via: fre:ac v1.0.31
# 
DISCID=ae0a240c
DTITLE=Don and Victoria Armstrong - Land O' Fandango
DYEAR=2007
DGENRE=Folk
TTITLE0=Land O' Fandango
TTITLE1=Santa Fe River
TTITLE2=Angel
TTITLE3=Sylvie
TTITLE4=Nogales
TTITLE5=Silver City Bound
TTITLE6=Old Rattler
TTITLE7=Buffalo Gals Revised
TTITLE8=People of The Mountain
TTITLE9=Valentine's Day
TTITLE10=Night People Dance
TTITLE11=Tecolote
EXTD=
EXTT0=
EXTT1=
EXTT2=
EXTT3=
EXTT4=
EXTT5=
EXTT6=
EXTT7=
EXTT8=
EXTT9=
EXTT10=
EXTT11=
PLAYORDER=
